<?xml version="1.0" standalone="no"?>
<!DOCTYPE svg PUBLIC "-//W3C//DTD SVG 20010904//EN"
 "http://www.w3.org/TR/2001/REC-SVG-20010904/DTD/svg10.dtd">
<svg version="1.0" xmlns="http://www.w3.org/2000/svg"
 width="320.000000pt" height="320.000000pt" viewBox="0 0 320.000000 320.000000"
 preserveAspectRatio="xMidYMid meet">
<metadata>
Created by potrace 1.11, written by Peter Selinger 2001-2013
</metadata>
<g transform="translate(0.000000,320.000000) scale(0.100000,-0.100000)"
fill="#000000" stroke="none">
<path d="M1325 3185 c-325 -60 -613 -212 -845 -445 -135 -135 -216 -247 -298
-408 -240 -472 -240 -1002 0 -1474 82 -161 163 -273 298 -409 218 -219 500
-372 798 -434 103 -21 541 -21 644 0 298 62 580 215 798 434 135 136 216 248
298 409 240 472 240 1002 0 1474 -82 161 -163 273 -298 409 -215 216 -470 357
-780 431 -114 27 -493 35 -615 13z m534 -145 c275 -56 501 -179 707 -384 250
-251 390 -553 425 -923 26 -266 -33 -569 -159 -819 -128 -253 -376 -500 -631
-629 -93 -46 -225 -91 -344 -117 -144 -30 -380 -30 -524 0 -282 61 -503 181
-709 386 -250 251 -390 553 -425 923 -26 266 33 569 159 819 128 253 376 500
631 629 129 64 301 115 457 135 101 13 300 3 413 -20z"/>
<path d="M2251 1996 c-11 -13 -37 -16 -152 -16 l-140 0 -60 -127 c-33 -71 -61
-137 -62 -148 -2 -17 6 -21 53 -26 80 -10 167 -46 216 -91 91 -83 98 -219 17
-309 -58 -64 -117 -69 -199 -16 -50 33 -87 42 -114 27 -29 -16 -23 -57 13 -84
24 -18 43 -21 122 -21 86 0 97 3 161 35 112 57 161 149 152 285 -6 82 -33 142
-80 179 -47 35 -134 74 -198 88 -30 6 -56 12 -58 14 -2 1 8 25 22 53 l26 51
129 0 129 0 21 51 c23 53 24 82 2 55z"/>
<path d="M604 1980 c-205 -41 -343 -255 -306 -473 15 -83 61 -175 111 -219 72
-64 202 -108 315 -108 63 0 203 33 256 60 l40 20 0 143 c0 155 7 179 55 191
14 4 25 11 25 16 0 6 -59 10 -150 10 -92 0 -150 -4 -150 -10 0 -5 18 -13 40
-16 25 -4 45 -14 51 -25 5 -11 8 -78 7 -155 -3 -135 -3 -137 -30 -157 -19 -14
-48 -21 -101 -25 -144 -9 -247 48 -303 170 -27 58 -29 72 -29 178 1 96 5 125
24 174 44 112 126 175 238 184 122 9 201 -36 258 -148 15 -29 32 -50 42 -50
14 0 15 11 9 92 -3 50 -6 106 -6 125 0 23 -5 33 -15 33 -8 0 -15 -4 -15 -10 0
-5 -9 -14 -21 -20 -15 -9 -41 -7 -108 9 -91 22 -165 25 -237 11z"/>
<path d="M1301 1964 c-128 -64 -147 -220 -38 -325 19 -19 74 -56 121 -82 139
-78 186 -128 186 -202 0 -82 -55 -129 -151 -129 -93 1 -164 56 -223 172 -25
48 -40 41 -32 -15 20 -155 29 -203 38 -203 5 0 18 10 27 22 l18 21 80 -21
c128 -35 213 -25 290 34 66 50 93 157 59 237 -20 48 -99 116 -205 177 -152 86
-194 141 -168 219 17 48 66 73 135 68 73 -5 127 -46 170 -128 40 -76 65 -91
57 -32 -3 21 -9 75 -14 121 -5 46 -12 86 -16 90 -4 4 -14 -3 -22 -15 -19 -28
-31 -28 -111 -3 -86 27 -137 26 -201 -6z"/>
<path d="M2410 1895 c-18 -47 -30 -88 -27 -91 3 -3 25 15 50 40 l44 46 156 0
c86 0 157 -3 157 -6 0 -3 -52 -158 -115 -346 -63 -187 -115 -344 -115 -349 0
-12 67 -12 74 0 7 10 256 774 256 784 0 4 -101 7 -224 7 l-223 0 -33 -85z"/>
</g>
</svg>
