<?xml version="1.0" standalone="no"?>
<!DOCTYPE svg PUBLIC "-//W3C//DTD SVG 20010904//EN"
 "http://www.w3.org/TR/2001/REC-SVG-20010904/DTD/svg10.dtd">
<svg version="1.0" xmlns="http://www.w3.org/2000/svg"
 width="320.000000pt" height="320.000000pt" viewBox="0 0 320.000000 320.000000"
 preserveAspectRatio="xMidYMid meet">
<metadata>
Created by potrace 1.11, written by Peter Selinger 2001-2013
</metadata>
<g transform="translate(0.000000,320.000000) scale(0.100000,-0.100000)"
fill="#000000" stroke="none">
<path d="M0 1600 l0 -1600 1600 0 1600 0 0 1600 0 1600 -1600 0 -1600 0 0
-1600z m428 1362 c37 -35 52 -86 52 -182 0 -95 -14 -146 -50 -182 -24 -23 -37
-28 -80 -28 -113 0 -145 45 -145 205 0 167 31 215 141 215 43 0 57 -5 82 -28z
m322 -182 l0 -210 -30 0 -30 0 0 176 0 175 -22 -7 c-13 -3 -38 -12 -56 -20
-33 -13 -33 -13 -30 13 3 22 14 30 73 53 39 16 76 29 83 29 9 1 12 -47 12
-209z m360 0 l0 -210 -30 0 -30 0 0 176 0 175 -22 -7 c-13 -3 -38 -12 -56 -20
-33 -13 -33 -13 -30 13 3 22 14 30 73 53 39 16 76 29 83 29 9 1 12 -47 12
-209z m398 182 c37 -35 52 -86 52 -182 0 -95 -14 -146 -50 -182 -24 -23 -37
-28 -80 -28 -113 0 -145 45 -145 205 0 167 31 215 141 215 43 0 57 -5 82 -28z
m360 0 c37 -35 52 -86 52 -182 0 -95 -14 -146 -50 -182 -24 -23 -37 -28 -80
-28 -113 0 -145 45 -145 205 0 167 31 215 141 215 43 0 57 -5 82 -28z m322
-182 l0 -210 -30 0 -30 0 0 176 0 175 -22 -7 c-13 -3 -38 -12 -56 -20 -33 -13
-33 -13 -30 13 3 22 14 30 73 53 39 16 76 29 83 29 9 1 12 -47 12 -209z m360
0 l0 -210 -30 0 -30 0 0 176 0 175 -22 -7 c-13 -3 -38 -12 -56 -20 -33 -13
-33 -13 -30 13 3 22 14 30 73 53 39 16 76 29 83 29 9 1 12 -47 12 -209z m360
0 l0 -210 -30 0 -30 0 0 176 0 175 -22 -7 c-13 -3 -38 -12 -56 -20 -33 -13
-33 -13 -30 13 3 22 14 30 73 53 39 16 76 29 83 29 9 1 12 -47 12 -209z
m-2482 -608 c37 -35 52 -86 52 -182 0 -95 -14 -146 -50 -182 -24 -23 -37 -28
-80 -28 -113 0 -145 45 -145 205 0 167 31 215 141 215 43 0 57 -5 82 -28z
m322 -182 l0 -210 -30 0 -30 0 0 176 0 175 -22 -7 c-13 -3 -38 -12 -56 -20
-33 -13 -33 -13 -30 13 3 22 14 30 73 53 39 16 76 29 83 29 9 1 12 -47 12
-209z m360 0 l0 -210 -30 0 -30 0 0 176 0 175 -22 -7 c-13 -3 -38 -12 -56 -20
-33 -13 -33 -13 -30 13 3 22 14 30 73 53 39 16 76 29 83 29 9 1 12 -47 12
-209z m360 0 l0 -210 -30 0 -30 0 0 176 0 175 -22 -7 c-13 -3 -38 -12 -56 -20
-33 -13 -33 -13 -30 13 3 22 14 30 73 53 39 16 76 29 83 29 9 1 12 -47 12
-209z m398 182 c37 -35 52 -86 52 -182 0 -95 -14 -146 -50 -182 -24 -23 -37
-28 -80 -28 -113 0 -145 45 -145 205 0 167 31 215 141 215 43 0 57 -5 82 -28z
m360 0 c37 -35 52 -86 52 -182 0 -95 -14 -146 -50 -182 -24 -23 -37 -28 -80
-28 -113 0 -145 45 -145 205 0 167 31 215 141 215 43 0 57 -5 82 -28z m322
-182 l0 -210 -30 0 -30 0 0 176 0 175 -22 -7 c-13 -3 -38 -12 -56 -20 -33 -13
-33 -13 -30 13 3 22 14 30 73 53 39 16 76 29 83 29 9 1 12 -47 12 -209z m360
0 l0 -210 -30 0 -30 0 0 176 0 175 -22 -7 c-13 -3 -38 -12 -56 -20 -33 -13
-33 -13 -30 13 3 22 14 30 73 53 39 16 76 29 83 29 9 1 12 -47 12 -209z
m-2482 -608 c37 -35 52 -86 52 -182 0 -95 -14 -146 -50 -182 -24 -23 -37 -28
-80 -28 -113 0 -145 45 -145 205 0 167 31 215 141 215 43 0 57 -5 82 -28z
m360 0 c37 -35 52 -86 52 -182 0 -95 -14 -146 -50 -182 -24 -23 -37 -28 -80
-28 -113 0 -145 45 -145 205 0 167 31 215 141 215 43 0 57 -5 82 -28z m322
-182 l0 -210 -30 0 -30 0 0 176 0 175 -22 -7 c-13 -3 -38 -12 -56 -20 -33 -13
-33 -13 -30 13 3 22 14 30 73 53 39 16 76 29 83 29 9 1 12 -47 12 -209z m360
0 l0 -210 -30 0 -30 0 0 176 0 175 -22 -7 c-13 -3 -38 -12 -56 -20 -33 -13
-33 -13 -30 13 3 22 14 30 73 53 39 16 76 29 83 29 9 1 12 -47 12 -209z m398
182 c37 -35 52 -86 52 -182 0 -95 -14 -146 -50 -182 -24 -23 -37 -28 -80 -28
-113 0 -145 45 -145 205 0 167 31 215 141 215 43 0 57 -5 82 -28z m322 -182
l0 -210 -30 0 -30 0 0 176 0 175 -22 -7 c-13 -3 -38 -12 -56 -20 -33 -13 -33
-13 -30 13 3 22 14 30 73 53 39 16 76 29 83 29 9 1 12 -47 12 -209z m398 182
c37 -35 52 -86 52 -182 0 -95 -14 -146 -50 -182 -24 -23 -37 -28 -80 -28 -113
0 -145 45 -145 205 0 167 31 215 141 215 43 0 57 -5 82 -28z m322 -182 l0
-210 -30 0 -30 0 0 176 0 175 -22 -7 c-13 -3 -38 -12 -56 -20 -33 -13 -33 -13
-30 13 3 22 14 30 73 53 39 16 76 29 83 29 9 1 12 -47 12 -209z m-2482 -608
c37 -35 52 -86 52 -182 0 -95 -14 -146 -50 -182 -24 -23 -37 -28 -80 -28 -113
0 -145 45 -145 205 0 167 31 215 141 215 43 0 57 -5 82 -28z m360 0 c37 -35
52 -86 52 -182 0 -95 -14 -146 -50 -182 -24 -23 -37 -28 -80 -28 -113 0 -145
45 -145 205 0 167 31 215 141 215 43 0 57 -5 82 -28z m322 -182 l0 -210 -30 0
-30 0 0 176 0 175 -22 -7 c-13 -3 -38 -12 -56 -20 -33 -13 -33 -13 -30 13 3
22 14 30 73 53 39 16 76 29 83 29 9 1 12 -47 12 -209z m360 0 l0 -210 -30 0
-30 0 0 176 0 175 -22 -7 c-13 -3 -38 -12 -56 -20 -33 -13 -33 -13 -30 13 3
22 14 30 73 53 39 16 76 29 83 29 9 1 12 -47 12 -209z m398 182 c37 -35 52
-86 52 -182 0 -95 -14 -146 -50 -182 -24 -23 -37 -28 -80 -28 -113 0 -145 45
-145 205 0 167 31 215 141 215 43 0 57 -5 82 -28z m322 -182 l0 -210 -30 0
-30 0 0 176 0 175 -22 -7 c-13 -3 -38 -12 -56 -20 -33 -13 -33 -13 -30 13 3
22 14 30 73 53 39 16 76 29 83 29 9 1 12 -47 12 -209z m360 0 l0 -210 -30 0
-30 0 0 176 0 175 -22 -7 c-13 -3 -38 -12 -56 -20 -33 -13 -33 -13 -30 13 3
22 14 30 73 53 39 16 76 29 83 29 9 1 12 -47 12 -209z m360 0 l0 -210 -30 0
-30 0 0 176 0 175 -22 -7 c-13 -3 -38 -12 -56 -20 -33 -13 -33 -13 -30 13 3
22 14 30 73 53 39 16 76 29 83 29 9 1 12 -47 12 -209z"/>
<path d="M285 2925 c-22 -21 -25 -33 -25 -100 0 -41 2 -75 5 -75 18 0 155 115
155 130 0 9 -9 29 -21 44 -28 35 -80 36 -114 1z"/>
<path d="M338 2752 c-46 -34 -77 -64 -78 -75 0 -10 11 -29 25 -43 34 -34 90
-30 117 7 15 20 18 39 16 96 l-3 72 -77 -57z"/>
<path d="M1365 2925 c-22 -21 -25 -33 -25 -100 0 -41 2 -75 5 -75 18 0 155
115 155 130 0 9 -9 29 -21 44 -28 35 -80 36 -114 1z"/>
<path d="M1418 2752 c-46 -34 -77 -64 -78 -75 0 -10 11 -29 25 -43 34 -34 90
-30 117 7 15 20 18 39 16 96 l-3 72 -77 -57z"/>
<path d="M1725 2925 c-22 -21 -25 -33 -25 -100 0 -41 2 -75 5 -75 18 0 155
115 155 130 0 9 -9 29 -21 44 -28 35 -80 36 -114 1z"/>
<path d="M1778 2752 c-46 -34 -77 -64 -78 -75 0 -10 11 -29 25 -43 34 -34 90
-30 117 7 15 20 18 39 16 96 l-3 72 -77 -57z"/>
<path d="M285 2135 c-22 -21 -25 -33 -25 -100 0 -41 2 -75 5 -75 18 0 155 115
155 130 0 9 -9 29 -21 44 -28 35 -80 36 -114 1z"/>
<path d="M338 1962 c-46 -34 -77 -64 -78 -75 0 -10 11 -29 25 -43 34 -34 90
-30 117 7 15 20 18 39 16 96 l-3 72 -77 -57z"/>
<path d="M1725 2135 c-22 -21 -25 -33 -25 -100 0 -41 2 -75 5 -75 18 0 155
115 155 130 0 9 -9 29 -21 44 -28 35 -80 36 -114 1z"/>
<path d="M1778 1962 c-46 -34 -77 -64 -78 -75 0 -10 11 -29 25 -43 34 -34 90
-30 117 7 15 20 18 39 16 96 l-3 72 -77 -57z"/>
<path d="M2085 2135 c-22 -21 -25 -33 -25 -100 0 -41 2 -75 5 -75 18 0 155
115 155 130 0 9 -9 29 -21 44 -28 35 -80 36 -114 1z"/>
<path d="M2138 1962 c-46 -34 -77 -64 -78 -75 0 -10 11 -29 25 -43 34 -34 90
-30 117 7 15 20 18 39 16 96 l-3 72 -77 -57z"/>
<path d="M285 1345 c-22 -21 -25 -33 -25 -100 0 -41 2 -75 5 -75 18 0 155 115
155 130 0 9 -9 29 -21 44 -28 35 -80 36 -114 1z"/>
<path d="M338 1172 c-46 -34 -77 -64 -78 -75 0 -10 11 -29 25 -43 34 -34 90
-30 117 7 15 20 18 39 16 96 l-3 72 -77 -57z"/>
<path d="M645 1345 c-22 -21 -25 -33 -25 -100 0 -41 2 -75 5 -75 18 0 155 115
155 130 0 9 -9 29 -21 44 -28 35 -80 36 -114 1z"/>
<path d="M698 1172 c-46 -34 -77 -64 -78 -75 0 -10 11 -29 25 -43 34 -34 90
-30 117 7 15 20 18 39 16 96 l-3 72 -77 -57z"/>
<path d="M1725 1345 c-22 -21 -25 -33 -25 -100 0 -41 2 -75 5 -75 18 0 155
115 155 130 0 9 -9 29 -21 44 -28 35 -80 36 -114 1z"/>
<path d="M1778 1172 c-46 -34 -77 -64 -78 -75 0 -10 11 -29 25 -43 34 -34 90
-30 117 7 15 20 18 39 16 96 l-3 72 -77 -57z"/>
<path d="M2445 1345 c-22 -21 -25 -33 -25 -100 0 -41 2 -75 5 -75 18 0 155
115 155 130 0 9 -9 29 -21 44 -28 35 -80 36 -114 1z"/>
<path d="M2498 1172 c-46 -34 -77 -64 -78 -75 0 -10 11 -29 25 -43 34 -34 90
-30 117 7 15 20 18 39 16 96 l-3 72 -77 -57z"/>
<path d="M285 555 c-22 -21 -25 -33 -25 -100 0 -41 2 -75 5 -75 18 0 155 115
155 130 0 9 -9 29 -21 44 -28 35 -80 36 -114 1z"/>
<path d="M338 382 c-46 -34 -77 -64 -78 -75 0 -10 11 -29 25 -43 34 -34 90
-30 117 7 15 20 18 39 16 96 l-3 72 -77 -57z"/>
<path d="M645 555 c-22 -21 -25 -33 -25 -100 0 -41 2 -75 5 -75 18 0 155 115
155 130 0 9 -9 29 -21 44 -28 35 -80 36 -114 1z"/>
<path d="M698 382 c-46 -34 -77 -64 -78 -75 0 -10 11 -29 25 -43 34 -34 90
-30 117 7 15 20 18 39 16 96 l-3 72 -77 -57z"/>
<path d="M1725 555 c-22 -21 -25 -33 -25 -100 0 -41 2 -75 5 -75 18 0 155 115
155 130 0 9 -9 29 -21 44 -28 35 -80 36 -114 1z"/>
<path d="M1778 382 c-46 -34 -77 -64 -78 -75 0 -10 11 -29 25 -43 34 -34 90
-30 117 7 15 20 18 39 16 96 l-3 72 -77 -57z"/>
</g>
</svg>
